<svg xmlns="http://www.w3.org/2000/svg" viewBox="0 0 400 300" fill="none">
  <rect width="400" height="300" fill="#111111" opacity="0.04"/>
  <path d="M0 200 Q100 160 200 180 Q300 200 400 170 L400 300 L0 300 Z" fill="#333333" opacity="0.1"/>
  <path d="M0 230 Q100 200 200 220 Q300 240 400 210 L400 300 L0 300 Z" fill="#333333" opacity="0.07"/>
  <line x1="150" y1="120" x2="150" y2="200" stroke="#333333" stroke-width="2" opacity="0.3"/>
  <circle cx="140" cy="130" r="12" fill="#333333" opacity="0.2"/>
  <circle cx="160" cy="140" r="10" fill="#333333" opacity="0.15"/>
  <circle cx="145" cy="155" r="11" fill="#333333" opacity="0.18"/>
  <line x1="250" y1="100" x2="250" y2="190" stroke="#333333" stroke-width="2" opacity="0.3"/>
  <circle cx="240" cy="110" r="11" fill="#333333" opacity="0.2"/>
  <circle cx="260" cy="120" r="10" fill="#333333" opacity="0.15"/>
  <circle cx="245" cy="140" r="12" fill="#333333" opacity="0.18"/>
  <circle cx="100" cy="70" r="4" fill="#C8A97E" opacity="0.3"/>
  <circle cx="300" cy="60" r="3" fill="#C8A97E" opacity="0.25"/>
</svg>